# xmcd
#
# Track frame offsets: 
#        150
#        14927
#        30135
#        41057
#        55655
#        69885
#        86127
#        99755
#        111385
#        123565
#        137172
#        151847
#        166460
#        180467
#        190532
#        204210
#        216917
#        229485
#        244992
#        258690
#
# Disc length: 3614 seconds
#
# Revision: 5
# Processed by: cddbd v1.5.2PL0 Copyright (c) Steve Scherf et al.
# Submitted via: ExactAudioCopy v0.99pb5
#
DISCID=160e1c14
DTITLE=Django Reinhard - L'inoubliable
DYEAR=1992
DGENRE=Jazz
TTITLE0=Nuages
TTITLE1=I Can't Give You Anything But Love
TTITLE2=Swing Guitars
TTITLE3=Georgia On My Mind
TTITLE4=Solitude
TTITLE5=Honeysuckle Rose
TTITLE6=Sweet Georgia Brown
TTITLE7=Tiger Rag
TTITLE8=Saint Louis Blues
TTITLE9=Daphne
TTITLE10=Minor Swing
TTITLE11=Tea For Two
TTITLE12=Panassie Stomp
TTITLE13=Les Yeux Noirs
TTITLE14=Swing De Paris
TTITLE15=Cascades
TTITLE16=Swing 42
TTITLE17=Manoir De Mes Rêves
TTITLE18=Coquette
TTITLE19=Echoes Of France (La Marseillaise)
EXTD=YEAR: 1992
EXTT0=
EXTT1=
EXTT2=
EXTT3=
EXTT4=
EXTT5=
EXTT6=
EXTT7=
EXTT8=
EXTT9=
EXTT10=
EXTT11=
EXTT12=
EXTT13=
EXTT14=
EXTT15=
EXTT16=
EXTT17=
EXTT18=
EXTT19=
PLAYORDER=
